<mxfile host="app.diagrams.net" modified="2021-03-05T05:59:27.053Z" agent="5.0 (Macintosh; Intel Mac OS X 11_1_0) AppleWebKit/537.36 (KHTML, like Gecko) Chrome/88.0.4324.96 Safari/537.36" etag="unnVcb8yrZWkNZzbgS7P" version="14.4.3" type="github" pages="2">
  <diagram id="S-uLeeeBmuKsqyW_BL37" name="Page-1">
    <mxGraphModel dx="946" dy="527" grid="1" gridSize="10" guides="1" tooltips="1" connect="1" arrows="1" fold="1" page="1" pageScale="1" pageWidth="827" pageHeight="1169" math="0" shadow="0">
      <root>
        <mxCell id="0" />
        <mxCell id="1" parent="0" />
        <mxCell id="XlJ9BNAJ4NX6f_aekt81-1" value="LiveActivity" style="swimlane;fontStyle=1;align=center;verticalAlign=top;childLayout=stackLayout;horizontal=1;startSize=26;horizontalStack=0;resizeParent=1;resizeParentMax=0;resizeLast=0;collapsible=1;marginBottom=0;" parent="1" vertex="1">
          <mxGeometry x="30" y="117.02000000000002" width="160" height="86" as="geometry" />
        </mxCell>
        <mxCell id="XlJ9BNAJ4NX6f_aekt81-2" value="+ field: type" style="text;strokeColor=none;fillColor=none;align=left;verticalAlign=top;spacingLeft=4;spacingRight=4;overflow=hidden;rotatable=0;points=[[0,0.5],[1,0.5]];portConstraint=eastwest;" parent="XlJ9BNAJ4NX6f_aekt81-1" vertex="1">
          <mxGeometry y="26" width="160" height="26" as="geometry" />
        </mxCell>
        <mxCell id="XlJ9BNAJ4NX6f_aekt81-3" value="" style="line;strokeWidth=1;fillColor=none;align=left;verticalAlign=middle;spacingTop=-1;spacingLeft=3;spacingRight=3;rotatable=0;labelPosition=right;points=[];portConstraint=eastwest;" parent="XlJ9BNAJ4NX6f_aekt81-1" vertex="1">
          <mxGeometry y="52" width="160" height="8" as="geometry" />
        </mxCell>
        <mxCell id="XlJ9BNAJ4NX6f_aekt81-4" value="+ method(type): type" style="text;strokeColor=none;fillColor=none;align=left;verticalAlign=top;spacingLeft=4;spacingRight=4;overflow=hidden;rotatable=0;points=[[0,0.5],[1,0.5]];portConstraint=eastwest;" parent="XlJ9BNAJ4NX6f_aekt81-1" vertex="1">
          <mxGeometry y="60" width="160" height="26" as="geometry" />
        </mxCell>
        <mxCell id="XlJ9BNAJ4NX6f_aekt81-6" value="FlyAVEventHandler&#xa;onUserVideoAvailable" style="" parent="1" vertex="1">
          <mxGeometry x="460" y="160" width="140" height="59.96" as="geometry" />
        </mxCell>
        <mxCell id="XlJ9BNAJ4NX6f_aekt81-7" value="FlyAVManager" style="swimlane;fontStyle=1;align=center;verticalAlign=top;childLayout=stackLayout;horizontal=1;startSize=26;horizontalStack=0;resizeParent=1;resizeParentMax=0;resizeLast=0;collapsible=1;marginBottom=0;" parent="1" vertex="1">
          <mxGeometry x="30" y="277.04" width="370" height="86" as="geometry" />
        </mxCell>
        <mxCell id="XlJ9BNAJ4NX6f_aekt81-8" value="+ mFlyAVEventListenerList:WeakReference&lt;FlyAVEventListener&gt;" style="text;strokeColor=none;fillColor=none;align=left;verticalAlign=top;spacingLeft=4;spacingRight=4;overflow=hidden;rotatable=0;points=[[0,0.5],[1,0.5]];portConstraint=eastwest;" parent="XlJ9BNAJ4NX6f_aekt81-7" vertex="1">
          <mxGeometry y="26" width="370" height="26" as="geometry" />
        </mxCell>
        <mxCell id="XlJ9BNAJ4NX6f_aekt81-9" value="" style="line;strokeWidth=1;fillColor=none;align=left;verticalAlign=middle;spacingTop=-1;spacingLeft=3;spacingRight=3;rotatable=0;labelPosition=right;points=[];portConstraint=eastwest;" parent="XlJ9BNAJ4NX6f_aekt81-7" vertex="1">
          <mxGeometry y="52" width="370" height="8" as="geometry" />
        </mxCell>
        <mxCell id="XlJ9BNAJ4NX6f_aekt81-10" value="+ onUserVideoAvailable:void" style="text;strokeColor=none;fillColor=none;align=left;verticalAlign=top;spacingLeft=4;spacingRight=4;overflow=hidden;rotatable=0;points=[[0,0.5],[1,0.5]];portConstraint=eastwest;" parent="XlJ9BNAJ4NX6f_aekt81-7" vertex="1">
          <mxGeometry y="60" width="370" height="26" as="geometry" />
        </mxCell>
        <mxCell id="XlJ9BNAJ4NX6f_aekt81-11" value="EventHandler&#xa;onUserVideoAvailable" style="" parent="1" vertex="1">
          <mxGeometry x="460" y="419.99999999999994" width="140" height="50" as="geometry" />
        </mxCell>
        <mxCell id="XlJ9BNAJ4NX6f_aekt81-12" value="dispatch" style="html=1;verticalAlign=bottom;endArrow=block;entryX=0;entryY=0.5;entryDx=0;entryDy=0;exitX=0.5;exitY=0;exitDx=0;exitDy=0;" parent="1" source="XlJ9BNAJ4NX6f_aekt81-7" target="XlJ9BNAJ4NX6f_aekt81-6" edge="1">
          <mxGeometry width="80" relative="1" as="geometry">
            <mxPoint x="200" y="273" as="sourcePoint" />
            <mxPoint x="320" y="170" as="targetPoint" />
          </mxGeometry>
        </mxCell>
        <mxCell id="XlJ9BNAJ4NX6f_aekt81-13" value="dispatch" style="html=1;verticalAlign=bottom;endArrow=block;entryX=1;entryY=0.5;entryDx=0;entryDy=0;exitX=0;exitY=0.5;exitDx=0;exitDy=0;" parent="1" source="XlJ9BNAJ4NX6f_aekt81-6" target="XlJ9BNAJ4NX6f_aekt81-2" edge="1">
          <mxGeometry width="80" relative="1" as="geometry">
            <mxPoint x="310" y="170" as="sourcePoint" />
            <mxPoint x="450" y="14.04000000000002" as="targetPoint" />
          </mxGeometry>
        </mxCell>
        <mxCell id="XlJ9BNAJ4NX6f_aekt81-18" value="dispatch" style="html=1;verticalAlign=bottom;endArrow=block;fontColor=#000000;exitX=0;exitY=0.5;exitDx=0;exitDy=0;entryX=0.476;entryY=0.998;entryDx=0;entryDy=0;entryPerimeter=0;" parent="1" source="XlJ9BNAJ4NX6f_aekt81-11" target="XlJ9BNAJ4NX6f_aekt81-10" edge="1">
          <mxGeometry width="80" relative="1" as="geometry">
            <mxPoint x="550" y="7.0400000000000205" as="sourcePoint" />
            <mxPoint x="460" y="117.04000000000002" as="targetPoint" />
          </mxGeometry>
        </mxCell>
        <mxCell id="XlJ9BNAJ4NX6f_aekt81-19" value="RyManager" style="swimlane;fontStyle=1;align=center;verticalAlign=top;childLayout=stackLayout;horizontal=1;startSize=26;horizontalStack=0;resizeParent=1;resizeParentMax=0;resizeLast=0;collapsible=1;marginBottom=0;strokeColor=#000000;fillColor=#ffffff;fontColor=#000000;" parent="1" vertex="1">
          <mxGeometry x="90" y="560" width="250" height="86" as="geometry" />
        </mxCell>
        <mxCell id="XlJ9BNAJ4NX6f_aekt81-20" value="+ mHandler: ArrayList&amp;lt;EventHandler&amp;gt;" style="text;strokeColor=none;fillColor=none;align=left;verticalAlign=top;spacingLeft=4;spacingRight=4;overflow=hidden;rotatable=0;points=[[0,0.5],[1,0.5]];portConstraint=eastwest;html=1;" parent="XlJ9BNAJ4NX6f_aekt81-19" vertex="1">
          <mxGeometry y="26" width="250" height="26" as="geometry" />
        </mxCell>
        <mxCell id="XlJ9BNAJ4NX6f_aekt81-21" value="" style="line;strokeWidth=1;fillColor=none;align=left;verticalAlign=middle;spacingTop=-1;spacingLeft=3;spacingRight=3;rotatable=0;labelPosition=right;points=[];portConstraint=eastwest;" parent="XlJ9BNAJ4NX6f_aekt81-19" vertex="1">
          <mxGeometry y="52" width="250" height="8" as="geometry" />
        </mxCell>
        <mxCell id="XlJ9BNAJ4NX6f_aekt81-22" value="+ method(type): type" style="text;strokeColor=none;fillColor=none;align=left;verticalAlign=top;spacingLeft=4;spacingRight=4;overflow=hidden;rotatable=0;points=[[0,0.5],[1,0.5]];portConstraint=eastwest;" parent="XlJ9BNAJ4NX6f_aekt81-19" vertex="1">
          <mxGeometry y="60" width="250" height="26" as="geometry" />
        </mxCell>
        <mxCell id="XlJ9BNAJ4NX6f_aekt81-25" value="远端变化回调" style="html=1;verticalAlign=bottom;endArrow=block;fontColor=#000000;entryX=0;entryY=0.5;entryDx=0;entryDy=0;" parent="1" target="XlJ9BNAJ4NX6f_aekt81-11" edge="1">
          <mxGeometry width="80" relative="1" as="geometry">
            <mxPoint x="215" y="560" as="sourcePoint" />
            <mxPoint x="460" y="400" as="targetPoint" />
          </mxGeometry>
        </mxCell>
        <mxCell id="XlJ9BNAJ4NX6f_aekt81-27" value="IFlyAVManager" style="strokeColor=#000000;fillColor=#ffffff;fontColor=#000000;" parent="1" vertex="1">
          <mxGeometry x="20" y="420" width="110" height="50" as="geometry" />
        </mxCell>
        <mxCell id="XlJ9BNAJ4NX6f_aekt81-28" value="dispatch" style="html=1;verticalAlign=bottom;endArrow=block;fontColor=#000000;exitX=0.484;exitY=0.998;exitDx=0;exitDy=0;exitPerimeter=0;entryX=0.5;entryY=0;entryDx=0;entryDy=0;" parent="1" source="XlJ9BNAJ4NX6f_aekt81-10" target="XlJ9BNAJ4NX6f_aekt81-27" edge="1">
          <mxGeometry width="80" relative="1" as="geometry">
            <mxPoint x="210" y="430" as="sourcePoint" />
            <mxPoint x="290" y="430" as="targetPoint" />
          </mxGeometry>
        </mxCell>
        <mxCell id="XlJ9BNAJ4NX6f_aekt81-29" value="开关流操作" style="html=1;verticalAlign=bottom;endArrow=block;fontColor=#000000;exitX=0.5;exitY=1;exitDx=0;exitDy=0;entryX=0.5;entryY=0;entryDx=0;entryDy=0;" parent="1" source="XlJ9BNAJ4NX6f_aekt81-27" target="XlJ9BNAJ4NX6f_aekt81-19" edge="1">
          <mxGeometry width="80" relative="1" as="geometry">
            <mxPoint x="210" y="430" as="sourcePoint" />
            <mxPoint x="290" y="430" as="targetPoint" />
          </mxGeometry>
        </mxCell>
        <mxCell id="XlJ9BNAJ4NX6f_aekt81-30" value="IRCRTCRoomEventsListener" style="strokeColor=#000000;fillColor=#ffffff;fontColor=#000000;" parent="1" vertex="1">
          <mxGeometry x="450" y="680" width="180" height="50" as="geometry" />
        </mxCell>
        <mxCell id="XlJ9BNAJ4NX6f_aekt81-31" value="RCRTCRoom" style="swimlane;fontStyle=1;align=center;verticalAlign=top;childLayout=stackLayout;horizontal=1;startSize=26;horizontalStack=0;resizeParent=1;resizeParentMax=0;resizeLast=0;collapsible=1;marginBottom=0;strokeColor=#000000;fillColor=#ffffff;fontColor=#000000;" parent="1" vertex="1">
          <mxGeometry x="130" y="820" width="160" height="86" as="geometry" />
        </mxCell>
        <mxCell id="XlJ9BNAJ4NX6f_aekt81-32" value="+ field: type" style="text;strokeColor=none;fillColor=none;align=left;verticalAlign=top;spacingLeft=4;spacingRight=4;overflow=hidden;rotatable=0;points=[[0,0.5],[1,0.5]];portConstraint=eastwest;" parent="XlJ9BNAJ4NX6f_aekt81-31" vertex="1">
          <mxGeometry y="26" width="160" height="26" as="geometry" />
        </mxCell>
        <mxCell id="XlJ9BNAJ4NX6f_aekt81-33" value="" style="line;strokeWidth=1;fillColor=none;align=left;verticalAlign=middle;spacingTop=-1;spacingLeft=3;spacingRight=3;rotatable=0;labelPosition=right;points=[];portConstraint=eastwest;" parent="XlJ9BNAJ4NX6f_aekt81-31" vertex="1">
          <mxGeometry y="52" width="160" height="8" as="geometry" />
        </mxCell>
        <mxCell id="XlJ9BNAJ4NX6f_aekt81-34" value="+ method(type): type" style="text;strokeColor=none;fillColor=none;align=left;verticalAlign=top;spacingLeft=4;spacingRight=4;overflow=hidden;rotatable=0;points=[[0,0.5],[1,0.5]];portConstraint=eastwest;" parent="XlJ9BNAJ4NX6f_aekt81-31" vertex="1">
          <mxGeometry y="60" width="160" height="26" as="geometry" />
        </mxCell>
        <mxCell id="XlJ9BNAJ4NX6f_aekt81-35" value="dispatch" style="html=1;verticalAlign=bottom;endArrow=block;fontColor=#000000;exitX=0;exitY=0.5;exitDx=0;exitDy=0;entryX=0.496;entryY=1.115;entryDx=0;entryDy=0;entryPerimeter=0;" parent="1" source="XlJ9BNAJ4NX6f_aekt81-30" target="XlJ9BNAJ4NX6f_aekt81-22" edge="1">
          <mxGeometry width="80" relative="1" as="geometry">
            <mxPoint x="210" y="670" as="sourcePoint" />
            <mxPoint x="290" y="670" as="targetPoint" />
          </mxGeometry>
        </mxCell>
        <mxCell id="XlJ9BNAJ4NX6f_aekt81-36" value="onRemoteUserMuteVideo" style="verticalAlign=bottom;endArrow=block;fontColor=#000000;exitX=0.5;exitY=0;exitDx=0;exitDy=0;entryX=0;entryY=0.5;entryDx=0;entryDy=0;" parent="1" source="XlJ9BNAJ4NX6f_aekt81-31" target="XlJ9BNAJ4NX6f_aekt81-30" edge="1">
          <mxGeometry width="80" relative="1" as="geometry">
            <mxPoint x="210" y="670" as="sourcePoint" />
            <mxPoint x="290" y="670" as="targetPoint" />
          </mxGeometry>
        </mxCell>
      </root>
    </mxGraphModel>
  </diagram>
  <diagram id="vSi1Y0w-gB5ANjmPjmJa" name="Page-2">
    <mxGraphModel dx="946" dy="515" grid="1" gridSize="10" guides="1" tooltips="1" connect="1" arrows="1" fold="1" page="1" pageScale="1" pageWidth="827" pageHeight="1169" math="0" shadow="0">
      <root>
        <mxCell id="D6UMihqdoie_Jcyoz0m2-0" />
        <mxCell id="D6UMihqdoie_Jcyoz0m2-1" parent="D6UMihqdoie_Jcyoz0m2-0" />
        <mxCell id="v4pxpd-itRiheF8WfOPi-0" value="&lt;p style=&quot;margin: 0px ; margin-top: 4px ; text-align: center&quot;&gt;&lt;i&gt;&amp;lt;&amp;lt;Interface&amp;gt;&amp;gt;&lt;/i&gt;&lt;br&gt;&lt;b&gt;IFlyAVManager&lt;/b&gt;&lt;/p&gt;&lt;hr size=&quot;1&quot;&gt;&lt;p style=&quot;margin: 0px ; margin-left: 4px&quot;&gt;+&amp;nbsp;muteRemoteVideoStream(String userId, boolean isOpen)&lt;br&gt;&lt;/p&gt;" style="verticalAlign=top;align=left;overflow=fill;fontSize=12;fontFamily=Helvetica;html=1;strokeColor=#000000;fillColor=#ffffff;" parent="D6UMihqdoie_Jcyoz0m2-1" vertex="1">
          <mxGeometry x="82.5" y="600" width="295" height="80" as="geometry" />
        </mxCell>
        <mxCell id="MQ84ozhcVUn0S6u-x9Cr-0" value="&lt;p style=&quot;margin: 0px ; margin-top: 4px ; text-align: center&quot;&gt;&lt;b&gt;FlyAVManager&lt;/b&gt;&lt;br&gt;&lt;/p&gt;&lt;hr size=&quot;1&quot;&gt;&lt;p style=&quot;margin: 0px ; margin-left: 4px&quot;&gt;+&amp;nbsp;mFlyAVEventListenerList:WeakReference&amp;lt;FlyAVEventListener&amp;gt;&lt;br&gt;&lt;/p&gt;&lt;hr size=&quot;1&quot;&gt;&lt;p style=&quot;margin: 0px ; margin-left: 4px&quot;&gt;+&amp;nbsp;muteRemoteVideoStream(String userId, boolean isOpen)&lt;br&gt;&lt;/p&gt;" style="verticalAlign=top;align=left;overflow=fill;fontSize=12;fontFamily=Helvetica;html=1;strokeColor=#000000;fillColor=#ffffff;" parent="D6UMihqdoie_Jcyoz0m2-1" vertex="1">
          <mxGeometry x="50" y="430" width="360" height="90" as="geometry" />
        </mxCell>
        <mxCell id="9fv4Vfg4NXShphWSONFX-1" value="" style="endArrow=open;endFill=1;endSize=12;html=1;fontColor=#000000;exitX=0.5;exitY=1;exitDx=0;exitDy=0;entryX=0.5;entryY=0;entryDx=0;entryDy=0;" parent="D6UMihqdoie_Jcyoz0m2-1" source="MQ84ozhcVUn0S6u-x9Cr-0" target="v4pxpd-itRiheF8WfOPi-0" edge="1">
          <mxGeometry width="160" relative="1" as="geometry">
            <mxPoint x="-20" y="560" as="sourcePoint" />
            <mxPoint x="140" y="560" as="targetPoint" />
          </mxGeometry>
        </mxCell>
        <mxCell id="7iceyElmZ4vkY1oNP4Qo-0" value="&lt;p style=&quot;margin: 0px ; margin-top: 4px ; text-align: center&quot;&gt;&lt;b&gt;RyManager&lt;/b&gt;&lt;/p&gt;&lt;hr size=&quot;1&quot;&gt;&lt;p style=&quot;margin: 0px ; margin-left: 4px&quot;&gt;+ field: Type&lt;/p&gt;&lt;hr size=&quot;1&quot;&gt;&lt;p style=&quot;margin: 0px ; margin-left: 4px&quot;&gt;+&amp;nbsp;muteRemoteVideoStream(String userId, boolean isOpen)&lt;br&gt;&lt;/p&gt;" style="verticalAlign=top;align=left;overflow=fill;fontSize=12;fontFamily=Helvetica;html=1;strokeColor=#000000;fillColor=#ffffff;" parent="D6UMihqdoie_Jcyoz0m2-1" vertex="1">
          <mxGeometry x="82.5" y="770" width="295" height="90" as="geometry" />
        </mxCell>
        <mxCell id="7iceyElmZ4vkY1oNP4Qo-1" value="" style="endArrow=block;dashed=1;endFill=0;endSize=12;html=1;fontColor=#000000;exitX=0.5;exitY=0;exitDx=0;exitDy=0;entryX=0.5;entryY=1;entryDx=0;entryDy=0;" parent="D6UMihqdoie_Jcyoz0m2-1" source="7iceyElmZ4vkY1oNP4Qo-0" target="v4pxpd-itRiheF8WfOPi-0" edge="1">
          <mxGeometry width="160" relative="1" as="geometry">
            <mxPoint x="102.5" y="510" as="sourcePoint" />
            <mxPoint x="262.5" y="510" as="targetPoint" />
          </mxGeometry>
        </mxCell>
        <mxCell id="iTBu9UCglC3KlHAvmHWr-0" value="&lt;p style=&quot;margin: 0px ; margin-top: 4px ; text-align: center&quot;&gt;&lt;b&gt;LiveActivity&lt;/b&gt;&lt;/p&gt;&lt;hr size=&quot;1&quot;&gt;&lt;p style=&quot;margin: 0px ; margin-left: 4px&quot;&gt;+ field: Type&lt;/p&gt;&lt;hr size=&quot;1&quot;&gt;&lt;p style=&quot;margin: 0px ; margin-left: 4px&quot;&gt;+ method(): Type&lt;/p&gt;" style="verticalAlign=top;align=left;overflow=fill;fontSize=12;fontFamily=Helvetica;html=1;strokeColor=#000000;fillColor=#ffffff;" vertex="1" parent="D6UMihqdoie_Jcyoz0m2-1">
          <mxGeometry x="150" y="260" width="160" height="90" as="geometry" />
        </mxCell>
        <mxCell id="iTBu9UCglC3KlHAvmHWr-1" value="Use:getInstances" style="endArrow=open;endSize=12;dashed=1;html=1;fontColor=#000000;exitX=0.5;exitY=1;exitDx=0;exitDy=0;entryX=0.5;entryY=0;entryDx=0;entryDy=0;" edge="1" parent="D6UMihqdoie_Jcyoz0m2-1" source="iTBu9UCglC3KlHAvmHWr-0" target="MQ84ozhcVUn0S6u-x9Cr-0">
          <mxGeometry width="160" relative="1" as="geometry">
            <mxPoint x="350" y="420" as="sourcePoint" />
            <mxPoint x="510" y="420" as="targetPoint" />
          </mxGeometry>
        </mxCell>
        <mxCell id="iTBu9UCglC3KlHAvmHWr-2" value="&lt;p style=&quot;margin: 0px ; margin-top: 4px ; text-align: center&quot;&gt;&lt;i&gt;&amp;lt;&amp;lt;Interface&amp;gt;&amp;gt;&lt;/i&gt;&lt;br&gt;&lt;b&gt;FlyAVEventHandler&lt;/b&gt;&lt;br&gt;&lt;/p&gt;&lt;hr size=&quot;1&quot;&gt;&lt;p style=&quot;margin: 0px ; margin-left: 4px&quot;&gt;+ field1: Type&lt;br&gt;+ field2: Type&lt;/p&gt;&lt;hr size=&quot;1&quot;&gt;&lt;p style=&quot;margin: 0px ; margin-left: 4px&quot;&gt;+onUserVideoAvailable(String userId, String userAccount, boolean available)&lt;br&gt;&lt;br&gt;&lt;/p&gt;" style="verticalAlign=top;align=left;overflow=fill;fontSize=12;fontFamily=Helvetica;html=1;strokeColor=#000000;fillColor=#ffffff;" vertex="1" parent="D6UMihqdoie_Jcyoz0m2-1">
          <mxGeometry x="470" y="245" width="190" height="120" as="geometry" />
        </mxCell>
        <mxCell id="iTBu9UCglC3KlHAvmHWr-3" value="" style="endArrow=block;dashed=1;endFill=0;endSize=12;html=1;fontColor=#000000;exitX=1;exitY=0.5;exitDx=0;exitDy=0;entryX=0;entryY=0.5;entryDx=0;entryDy=0;" edge="1" parent="D6UMihqdoie_Jcyoz0m2-1" source="iTBu9UCglC3KlHAvmHWr-0" target="iTBu9UCglC3KlHAvmHWr-2">
          <mxGeometry width="160" relative="1" as="geometry">
            <mxPoint x="330" y="270" as="sourcePoint" />
            <mxPoint x="490" y="270" as="targetPoint" />
          </mxGeometry>
        </mxCell>
      </root>
    </mxGraphModel>
  </diagram>
</mxfile>
